HIERARCHY
ROOT root
{
	OFFSET 0.000000 0.000000 0.000000
	CHANNELS 6 Xposition Yposition Zposition Zrotation Yrotation Xrotation
	JOINT lhip
	{
		OFFSET 0.058581 -0.082280 -0.017664
		CHANNELS 3 Zrotation Yrotation Xrotation
		JOINT lknee
		{
			OFFSET 0.043451 -0.386469 0.008037
			CHANNELS 3 Zrotation Yrotation Xrotation
			JOINT lankle
			{
				OFFSET -0.014790 -0.426874 -0.037428
				CHANNELS 3 Zrotation Yrotation Xrotation
				JOINT ltoe
				{
					OFFSET 0.041054 -0.060286 0.122042
					CHANNELS 3 Zrotation Yrotation Xrotation
					End Site
					{
						OFFSET 0.000000 0.000000 0.000000
					}
				}
			}
		}
	}
	JOINT rhip
	{
		OFFSET -0.060310 -0.090513 -0.013543
		CHANNELS 3 Zrotation Yrotation Xrotation
		JOINT rknee
		{
			OFFSET -0.043257 -0.383688 -0.004843
			CHANNELS 3 Zrotation Yrotation Xrotation
			JOINT rankle
			{
				OFFSET 0.019056 -0.420046 -0.034562
				CHANNELS 3 Zrotation Yrotation Xrotation
				JOINT rtoe
				{
					OFFSET -0.034840 -0.062106 0.130323
					CHANNELS 3 Zrotation Yrotation Xrotation
					End Site
					{
						OFFSET 0.000000 0.000000 0.000000
					}
				}
			}
		}
	}
	JOINT lowerback
	{
		OFFSET 0.004439 0.124404 -0.038385
		CHANNELS 3 Zrotation Yrotation Xrotation
		JOINT upperback
		{
			OFFSET 0.004488 0.137956 0.026820
			CHANNELS 3 Zrotation Yrotation Xrotation
			JOINT chest
			{
				OFFSET -0.002265 0.056032 0.002855
				CHANNELS 3 Zrotation Yrotation Xrotation
				JOINT lowerneck
				{
					OFFSET -0.013390 0.211636 -0.033468
					CHANNELS 3 Zrotation Yrotation Xrotation
					JOINT upperneck
					{
						OFFSET 0.010113 0.088937 0.050410
						CHANNELS 3 Zrotation Yrotation Xrotation
						End Site
						{
							OFFSET 0.000000 0.000000 0.000000
						}
					}
				}
				JOINT lclavicle
				{
					OFFSET 0.071702 0.114000 -0.018898
					CHANNELS 3 Zrotation Yrotation Xrotation
					JOINT lshoulder
					{
						OFFSET 0.122921 0.045205 -0.019046
						CHANNELS 3 Zrotation Yrotation Xrotation
						JOINT lelbow
						{
							OFFSET 0.255332 -0.015649 -0.022946
							CHANNELS 3 Zrotation Yrotation Xrotation
							JOINT lwrist
							{
								OFFSET 0.265709 0.012698 -0.007375
								CHANNELS 3 Zrotation Yrotation Xrotation
								End Site
								{
									OFFSET 0.000000 0.000000 0.000000
								}
							}
						}
					}
				}
				JOINT rclavicle
				{
					OFFSET -0.082954 0.112472 -0.023707
					CHANNELS 3 Zrotation Yrotation Xrotation
					JOINT rshoulder
					{
						OFFSET -0.113228 0.046853 -0.008472
						CHANNELS 3 Zrotation Yrotation Xrotation
						JOINT relbow
						{
							OFFSET -0.260127 -0.014369 -0.031269
							CHANNELS 3 Zrotation Yrotation Xrotation
							JOINT rwrist
							{
								OFFSET -0.269108 0.006794 -0.006027
								CHANNELS 3 Zrotation Yrotation Xrotation
								End Site
								{
									OFFSET 0.000000 0.000000 0.000000
								}
							}
						}
					}
				}
			}
		}
	}
}
MOTION
Frames: 8
Frame Time: 0.033333
-0.081564 0.448821 0.995431 -4.163251 0.425698 91.665955 2.211085 4.094890 4.203843 -1.546006 -3.318907 -5.403182 2.909702 7.525644 -7.154437 0.000000 -0.000000 0.000000 -0.129286 -4.911045 0.483619 1.385834 -5.664304 -1.717516 0.415480 -8.206528 -6.945997 0.000000 -0.000000 0.000000 -0.052879 -0.213924 -3.591179 -0.908956 -0.580196 5.655244 -0.555630 -0.651620 -3.593654 -15.181855 12.485258 4.446089 -13.511210 14.263314 4.665784 -31.818523 1.123238 11.736246 -55.145606 -6.211476 11.024333 11.434303 -25.315789 -0.309751 8.942663 -10.761022 -16.370431 29.640690 3.061230 10.987101 51.597910 8.495517 9.224684 -7.291713 9.824865 -15.818403 -5.274738 12.705328 -24.451036 
-0.080147 0.443860 0.993392 -3.913533 0.884838 92.302556 2.691247 4.259068 3.778762 -1.524433 -3.650607 -5.720646 2.797133 7.171016 -7.167386 0.000000 -0.000000 0.000000 0.340808 -5.470167 0.322335 1.409226 -5.372672 -2.273880 1.214376 -7.910703 -7.046995 0.000000 -0.000000 0.000000 1.301975 -0.693096 -4.716978 -2.021417 -0.298241 4.737314 -0.989000 -0.785756 -1.664433 -14.839293 12.919816 -1.644145 -12.617183 15.506667 3.728210 -30.213368 0.948028 11.445862 -57.907824 -6.567735 8.588997 12.049076 -24.939696 2.347084 8.077443 -11.585744 -18.879003 28.650217 3.543536 11.151905 53.137171 9.216767 7.162291 -8.402304 9.254283 -14.431254 -4.773267 13.529800 -25.668247 
-0.079301 0.443985 0.993568 -3.787220 1.045513 92.512745 2.802545 4.165357 3.401923 -1.483965 -3.547420 -5.555832 2.833643 6.884355 -7.238688 0.000000 -0.000000 0.000000 0.604218 -5.335940 -0.051263 1.294045 -5.491990 -2.115638 1.196865 -8.108442 -6.957887 0.000000 -0.000000 0.000000 1.342464 -0.866126 -4.119019 -2.327017 -0.339830 4.023058 -0.760841 -0.976677 -1.826555 -14.581835 13.198523 -5.189222 -12.257621 17.043381 0.909228 -30.147196 0.944155 11.635484 -59.110485 -6.398805 7.777261 12.765871 -24.633081 2.111846 8.444329 -11.757665 -19.293680 28.072059 3.832194 11.614398 53.487306 9.295587 6.268318 -9.468539 9.434721 -15.662966 -5.221597 13.488390 -26.699018 
-0.077698 0.444145 0.993417 -3.602787 1.180442 92.768439 2.801377 4.083747 3.039779 -1.372258 -3.462451 -5.330085 2.872003 6.581138 -7.421623 0.000000 -0.000000 0.000000 0.697477 -5.247654 -0.346913 1.299639 -5.794922 -1.993065 1.293375 -8.228671 -6.981201 0.000000 -0.000000 0.000000 1.244278 -1.014407 -3.941336 -2.479173 -0.596947 3.955399 -0.439207 -1.091969 -2.006616 -14.499873 13.328563 -8.658907 -11.882040 18.360702 -3.417108 -30.304997 0.842613 11.832473 -60.118234 -5.931064 7.142414 13.737396 -25.127854 1.383729 8.168317 -11.389532 -20.019099 27.729531 3.993147 11.593229 53.178197 9.140267 4.712411 -11.430386 10.051082 -18.886429 -5.469599 13.650762 -28.052068 
-0.076881 0.443718 0.993320 -3.668880 1.230955 92.866590 2.800982 4.204830 2.991164 -1.357469 -3.480508 -5.250102 2.767826 6.460112 -7.503160 0.000000 -0.000000 0.000000 0.691536 -5.361810 -0.433467 1.299419 -5.732403 -1.942417 1.372334 -8.195693 -7.006090 0.000000 -0.000000 0.000000 1.167637 -0.985260 -3.925730 -2.455226 -0.675575 3.786959 -0.286955 -1.195152 -2.035175 -14.161724 13.582837 -10.132830 -11.880148 18.845691 -5.401722 -30.347785 0.927786 11.957219 -60.504853 -5.759422 6.941864 13.775426 -25.048585 1.678587 9.127133 -11.408422 -20.586165 27.686584 3.782513 11.569614 52.685299 9.109182 4.024975 -12.303984 10.444744 -20.109508 -8.299731 14.067432 -30.048175 
-0.075710 0.442356 0.993227 -3.781287 1.294001 92.610533 2.799089 4.104858 3.458949 -1.317287 -3.129057 -5.308644 2.706873 6.303351 -7.625108 0.000000 -0.000000 0.000000 0.639877 -5.482040 0.065304 1.272939 -5.730289 -2.098635 1.570795 -8.002695 -7.003781 0.000000 -0.000000 0.000000 1.085202 -0.894869 -3.957972 -2.351592 -0.932615 4.387201 -0.048796 -1.156182 -2.311970 -13.868468 13.775703 -11.800872 -11.698069 19.424918 -8.309337 -30.648985 0.745835 11.793528 -60.819925 -5.233593 6.630496 14.174727 -25.060030 0.959719 8.946329 -11.433335 -21.068189 27.640987 3.751296 11.382312 52.060189 9.124916 2.432303 -14.860027 10.688460 -24.426083 -7.844577 13.674419 -31.373573 
-0.074516 0.441715 0.992876 -3.984371 1.381529 92.718525 2.804562 4.396455 3.457231 -1.295076 -3.168925 -5.319526 2.583512 6.212013 -7.701904 0.000000 -0.000000 0.000000 0.680007 -5.449454 -0.107889 1.154030 -5.667725 -1.912305 1.716344 -7.846765 -7.125861 0.000000 -0.000000 0.000000 1.083806 -0.898965 -3.858106 -2.192719 -0.936286 3.914643 0.051307 -1.263971 -2.397042 -12.698088 14.345423 -12.687960 -11.594727 19.396688 -10.115897 -30.907800 1.394397 11.731798 -60.850114 -5.065052 6.410631 14.090466 -25.273243 1.594096 10.773475 -11.168077 -22.165892 27.747515 2.923248 11.191871 51.056400 9.785392 1.121461 -16.259820 11.191753 -27.830981 -14.814103 12.704959 -37.346993 
-0.073183 0.441316 0.992459 -3.846420 1.476451 92.661964 2.787702 4.481807 3.477962 -1.154326 -3.274522 -5.203023 2.444482 6.078730 -7.772963 0.000000 -0.000000 0.000000 0.751629 -5.198997 0.039980 1.066807 -5.942544 -1.987676 1.771728 -8.102523 -7.077507 0.000000 -0.000000 0.000000 0.872277 -1.035438 -3.902418 -1.825213 -1.191774 3.901414 0.363396 -1.504486 -2.243620 -11.358953 14.626098 -13.305240 -11.367569 19.420674 -11.429684 -31.300137 1.723759 11.648128 -61.010811 -4.991541 6.300342 14.543171 -25.650792 1.034963 12.312546 -10.612971 -23.174321 27.963708 2.419295 10.921889 49.736107 10.339218 -0.183731 -19.015961 13.276609 -32.541249 -20.031283 10.955530 -44.036326 
